<svg width="80" height="80" viewBox="0 0 80 80" fill="none" xmlns="http://www.w3.org/2000/svg">
<path d="M77.7 1H69.9C69.5552 1 69.2246 1.13696 68.9808 1.38076C68.737 1.62456 68.6 1.95522 68.6 2.3V2.7966L65.8297 1.4108C65.2881 1.14111 64.6914 1.0005 64.0864 1H45.0336C44.1489 1.00084 43.2907 1.30248 42.6 1.8554L37.1647 6.2H15.3C14.9552 6.2 14.6246 6.33696 14.3808 6.58076C14.137 6.82456 14 7.15522 14 7.5V28.3C14 28.6448 14.137 28.9754 14.3808 29.2192C14.6246 29.463 14.9552 29.6 15.3 29.6H54.3C54.6448 29.6 54.9754 29.463 55.2192 29.2192C55.463 28.9754 55.6 28.6448 55.6 28.3V18.4824C57.2708 19.1417 59.0707 19.4086 60.861 19.2625C62.6512 19.1165 64.384 18.5614 65.9259 17.64L67.664 16.6H68.6V17.9C68.6 18.2448 68.737 18.5754 68.9808 18.8192C69.2246 19.063 69.5552 19.2 69.9 19.2H77.7C78.0448 19.2 78.3754 19.063 78.6192 18.8192C78.863 18.5754 79 18.2448 79 17.9V2.3C79 1.95522 78.863 1.62456 78.6192 1.38076C78.3754 1.13696 78.0448 1 77.7 1ZM16.6 27V8.8H47.7077L46.2504 10.2586C45.54 10.9941 45.1469 11.9793 45.1558 13.0019C45.1647 14.0244 45.5748 15.0026 46.2979 15.7257C47.021 16.4488 47.9992 16.8589 49.0217 16.8678C50.0443 16.8767 51.0294 16.4836 51.765 15.7732L53 14.5382V27H16.6ZM67.2922 14C67.0589 14.001 66.8302 14.0653 66.6305 14.1859L64.5882 15.4105C63.3763 16.1343 62.0132 16.5676 60.6058 16.6763C59.1984 16.785 57.7849 16.5662 56.4762 16.0371L55.6 15.6809V11.9382L57.251 10.2872L57.9218 10.5108C59.7907 11.1296 61.8093 11.1296 63.6782 10.5108L65.1082 10.0337C65.4357 9.92475 65.7066 9.69015 65.8612 9.3815C66.0157 9.07285 66.0414 8.71544 65.9324 8.3879C65.8234 8.06036 65.5888 7.78951 65.2802 7.63494C64.9715 7.48038 64.6141 7.45475 64.2866 7.5637L62.8566 8.0421C61.522 8.48406 60.0806 8.48406 58.746 8.0421L57.316 7.5637C57.087 7.48751 56.8413 7.47659 56.6064 7.53215C56.3715 7.58771 56.1567 7.70757 55.9861 7.8783L53.3861 10.4783L49.9268 13.935C49.683 14.1787 49.3524 14.3156 49.0077 14.3156C48.663 14.3156 48.3324 14.1787 48.0886 13.935C47.8449 13.6912 47.708 13.3606 47.708 13.0159C47.708 12.6712 47.8449 12.3406 48.0886 12.0968L53.1404 7.0437C53.3772 6.79852 53.5082 6.47013 53.5053 6.12928C53.5023 5.78842 53.3656 5.46237 53.1246 5.22134C52.8835 4.98031 52.5575 4.84359 52.2166 4.84062C51.8758 4.83766 51.5474 4.96869 51.3022 5.2055L50.3077 6.2H41.3273L44.2211 3.8847C44.4517 3.70027 44.7383 3.59986 45.0336 3.6H64.0864C64.288 3.6007 64.4867 3.64738 64.6675 3.7365L68.6 5.7034V13.9909L67.2922 14ZM76.4 16.6H71.2V3.6H76.4V16.6Z" fill="#257226" stroke="#257226"/>
<path d="M34.8004 13.9996C35.1452 13.9996 35.4758 14.1366 35.7196 14.3804C35.9634 14.6242 36.1004 14.9548 36.1004 15.2996H38.7004C38.6971 14.4959 38.4455 13.7128 37.9801 13.0575C37.5147 12.4022 36.8582 11.9067 36.1004 11.6388V10.0996H33.5004V11.6388C32.6337 11.9441 31.903 12.5462 31.4378 13.3386C30.9725 14.131 30.8027 15.0625 30.9584 15.968C31.1141 16.8736 31.5853 17.6949 32.2885 18.2864C32.9917 18.8778 33.8815 19.2014 34.8004 19.1996C35.0575 19.1996 35.3088 19.2759 35.5226 19.4187C35.7364 19.5615 35.903 19.7646 36.0014 20.0021C36.0998 20.2397 36.1256 20.5011 36.0754 20.7532C36.0253 21.0054 35.9014 21.237 35.7196 21.4188C35.5378 21.6007 35.3062 21.7245 35.054 21.7746C34.8018 21.8248 34.5404 21.799 34.3029 21.7007C34.0654 21.6023 33.8623 21.4356 33.7195 21.2219C33.5766 21.0081 33.5004 20.7567 33.5004 20.4996H30.9004C30.9037 21.3033 31.1553 22.0864 31.6207 22.7417C32.0861 23.397 32.7426 23.8925 33.5004 24.1604V25.6996H36.1004V24.1604C36.9671 23.8551 37.6978 23.253 38.163 22.4606C38.6283 21.6682 38.7981 20.7368 38.6424 19.8312C38.4867 18.9256 38.0155 18.1043 37.3123 17.5129C36.6091 16.9214 35.7193 16.5979 34.8004 16.5996C34.4556 16.5996 34.1249 16.4626 33.8812 16.2188C33.6374 15.9751 33.5004 15.6444 33.5004 15.2996C33.5004 14.9548 33.6374 14.6242 33.8812 14.3804C34.1249 14.1366 34.4556 13.9996 34.8004 13.9996Z" fill="#257226" stroke="#257226"/>
<path d="M26.9996 16.5996H24.3996C24.0548 16.5996 23.7242 16.7366 23.4804 16.9804C23.2366 17.2242 23.0996 17.5548 23.0996 17.8996C23.0996 18.2444 23.2366 18.5751 23.4804 18.8188C23.7242 19.0626 24.0548 19.1996 24.3996 19.1996H26.9996C27.3444 19.1996 27.6751 19.0626 27.9188 18.8188C28.1626 18.5751 28.2996 18.2444 28.2996 17.8996C28.2996 17.5548 28.1626 17.2242 27.9188 16.9804C27.6751 16.7366 27.3444 16.5996 26.9996 16.5996Z" fill="#257226" stroke="#257226"/>
<path d="M45.2008 16.5996H42.6008C42.256 16.5996 41.9253 16.7366 41.6815 16.9804C41.4377 17.2242 41.3008 17.5548 41.3008 17.8996C41.3008 18.2444 41.4377 18.5751 41.6815 18.8188C41.9253 19.0626 42.256 19.1996 42.6008 19.1996H45.2008C45.5456 19.1996 45.8762 19.0626 46.12 18.8188C46.3638 18.5751 46.5008 18.2444 46.5008 17.8996C46.5008 17.5548 46.3638 17.2242 46.12 16.9804C45.8762 16.7366 45.5456 16.5996 45.2008 16.5996Z" fill="#257226" stroke="#257226"/>
<path d="M54.8954 63.1047C54.6409 62.6592 54.3007 62.2685 53.8944 61.9552C53.4882 61.6419 53.0239 61.4121 52.5283 61.2792C52.0328 61.1462 51.5159 61.1127 51.0073 61.1806C50.4988 61.2485 50.0087 61.4164 49.5654 61.6747L41.2103 66.4847C41.0238 65.6122 40.5439 64.8301 39.8505 64.2687C39.1571 63.7073 38.2922 63.4006 37.4 63.3998H27.39L27.13 63.2256C24.8055 61.6701 22.0748 60.8325 19.2779 60.8173C16.481 60.802 13.7413 61.6097 11.4 63.1398V62.0998C11.4 61.755 11.263 61.4244 11.0192 61.1806C10.7754 60.9368 10.4448 60.7998 10.1 60.7998H2.3C1.95522 60.7998 1.62456 60.9368 1.38076 61.1806C1.13696 61.4244 1 61.755 1 62.0998V77.6998C1 78.0446 1.13696 78.3753 1.38076 78.619C1.62456 78.8628 1.95522 78.9998 2.3 78.9998H10.1C10.4448 78.9998 10.7754 78.8628 11.0192 78.619C11.263 78.3753 11.4 78.0446 11.4 77.6998V77.523L12.6142 78.329C13.2567 78.7661 14.0159 78.9998 14.793 78.9998H34.098C34.783 79.0055 35.4568 78.8258 36.048 78.4798L53.468 68.4308C54.0609 68.0859 54.553 67.5916 54.8951 66.9971C55.2373 66.4027 55.4176 65.7289 55.418 65.043C55.4178 64.3621 55.2375 63.6934 54.8954 63.1047ZM8.8 76.3998H3.6V63.3998H8.8V76.3998ZM52.168 66.174L34.7285 76.2347C34.5374 76.3464 34.3193 76.4035 34.098 76.3998H14.793C14.5344 76.4003 14.2817 76.3219 14.0689 76.1749L11.4 74.403V65.9998C11.6562 66 11.9068 65.9245 12.1202 65.7827L12.7104 65.3927C14.6309 64.1074 16.8897 63.4212 19.2006 63.4212C21.5116 63.4212 23.7704 64.1074 25.6909 65.3927L26.2798 65.7827C26.4932 65.9245 26.7438 66 27 65.9998H37.4C37.7448 65.9998 38.0754 66.1368 38.3192 66.3806C38.563 66.6244 38.7 66.955 38.7 67.2998C38.7 67.6446 38.563 67.9752 38.3192 68.219C38.0754 68.4628 37.7448 68.5998 37.4 68.5998H29.6C29.2552 68.5998 28.9246 68.7368 28.6808 68.9806C28.437 69.2244 28.3 69.555 28.3 69.8998C28.3 70.2446 28.437 70.5752 28.6808 70.819C28.9246 71.0628 29.2552 71.1998 29.6 71.1998H37.4C38.3513 71.1966 39.2682 70.8431 39.9753 70.2066L50.8784 63.9198C51.0232 63.8345 51.1836 63.779 51.3501 63.7567C51.5167 63.7344 51.6861 63.7456 51.8482 63.7898C52.0148 63.8339 52.1709 63.911 52.3074 64.0163C52.4438 64.1217 52.5577 64.2533 52.6425 64.4034C52.7564 64.5955 52.8169 64.8145 52.818 65.0378C52.8184 65.2675 52.7586 65.4932 52.6445 65.6926C52.5305 65.8919 52.3662 66.0579 52.168 66.174Z" fill="#257226" stroke="#257226"/>
<path d="M51.6996 34.7998H17.8996C17.5548 34.7998 17.2242 34.9368 16.9804 35.1806C16.7366 35.4244 16.5996 35.755 16.5996 36.0998V59.4998C16.5996 59.8446 16.7366 60.1752 16.9804 60.419C17.2242 60.6628 17.5548 60.7998 17.8996 60.7998H51.6996C52.0444 60.7998 52.3751 60.6628 52.6189 60.419C52.8626 60.1752 52.9996 59.8446 52.9996 59.4998V36.0998C52.9996 35.755 52.8626 35.4244 52.6189 35.1806C52.3751 34.9368 52.0444 34.7998 51.6996 34.7998ZM36.0996 37.3998V42.5998H33.4996V37.3998H36.0996ZM50.3996 58.1998H19.1996V37.3998H30.8996V43.8998C30.8996 44.2446 31.0366 44.5752 31.2804 44.819C31.5242 45.0628 31.8548 45.1998 32.1996 45.1998H37.3996C37.7444 45.1998 38.0751 45.0628 38.3188 44.819C38.5626 44.5752 38.6996 44.2446 38.6996 43.8998V37.3998H50.3996V58.1998Z" fill="#257226" stroke="#257226"/>
<path d="M27 50.4004H21.8C21.4552 50.4004 21.1246 50.5374 20.8808 50.7812C20.637 51.0249 20.5 51.3556 20.5 51.7004C20.5 52.0452 20.637 52.3758 20.8808 52.6196C21.1246 52.8634 21.4552 53.0004 21.8 53.0004H27C27.3448 53.0004 27.6754 52.8634 27.9192 52.6196C28.163 52.3758 28.3 52.0452 28.3 51.7004C28.3 51.3556 28.163 51.0249 27.9192 50.7812C27.6754 50.5374 27.3448 50.4004 27 50.4004Z" fill="#257226" stroke="#257226"/>
<path d="M32.1996 50.4004H30.8996C30.5548 50.4004 30.2242 50.5374 29.9804 50.7812C29.7366 51.0249 29.5996 51.3556 29.5996 51.7004C29.5996 52.0452 29.7366 52.3758 29.9804 52.6196C30.2242 52.8634 30.5548 53.0004 30.8996 53.0004H32.1996C32.5444 53.0004 32.8751 52.8634 33.1188 52.6196C33.3626 52.3758 33.4996 52.0452 33.4996 51.7004C33.4996 51.3556 33.3626 51.0249 33.1188 50.7812C32.8751 50.5374 32.5444 50.4004 32.1996 50.4004Z" fill="#257226" stroke="#257226"/>
<path d="M27 54.2998H21.8C21.4552 54.2998 21.1246 54.4368 20.8808 54.6806C20.637 54.9244 20.5 55.255 20.5 55.5998C20.5 55.9446 20.637 56.2752 20.8808 56.519C21.1246 56.7628 21.4552 56.8998 21.8 56.8998H27C27.3448 56.8998 27.6754 56.7628 27.9192 56.519C28.163 56.2752 28.3 55.9446 28.3 55.5998C28.3 55.255 28.163 54.9244 27.9192 54.6806C27.6754 54.4368 27.3448 54.2998 27 54.2998Z" fill="#257226" stroke="#257226"/>
<path d="M32.1996 54.2998H30.8996C30.5548 54.2998 30.2242 54.4368 29.9804 54.6806C29.7366 54.9244 29.5996 55.255 29.5996 55.5998C29.5996 55.9446 29.7366 56.2752 29.9804 56.519C30.2242 56.7628 30.5548 56.8998 30.8996 56.8998H32.1996C32.5444 56.8998 32.8751 56.7628 33.1188 56.519C33.3626 56.2752 33.4996 55.9446 33.4996 55.5998C33.4996 55.255 33.3626 54.9244 33.1188 54.6806C32.8751 54.4368 32.5444 54.2998 32.1996 54.2998Z" fill="#257226" stroke="#257226"/>
</svg>
