<svg width="267" height="24" viewBox="0 0 267 24" fill="none" xmlns="http://www.w3.org/2000/svg">
<path fill-rule="evenodd" clip-rule="evenodd" d="M17.9597 17.0002V8.62419C17.9597 6.24819 16.6877 5.12019 14.5517 5.12019C12.7757 5.12019 11.2397 6.17619 10.5677 7.23219C10.1357 5.91219 9.05572 5.12019 7.35172 5.12019C5.57572 5.12019 4.03972 6.22419 3.55972 6.92019V5.40819H0.511719V17.0002H3.55972V9.20019C4.01572 8.55219 4.90372 7.83219 5.95972 7.83219C7.20772 7.83219 7.68772 8.60019 7.68772 9.68019V17.0002H10.7597V9.17619C11.1917 8.55219 12.0797 7.83219 13.1597 7.83219C14.4077 7.83219 14.8877 8.60019 14.8877 9.68019V17.0002H17.9597ZM26.3357 17.2882C22.5197 17.2882 20.2157 14.5042 20.2157 11.1922C20.2157 7.90419 22.5197 5.12019 26.3357 5.12019C30.1757 5.12019 32.4797 7.90419 32.4797 11.1922C32.4797 14.5042 30.1757 17.2882 26.3357 17.2882ZM26.3357 14.5762C28.2317 14.5762 29.3117 13.0162 29.3117 11.1922C29.3117 9.39219 28.2317 7.83219 26.3357 7.83219C24.4397 7.83219 23.3837 9.39219 23.3837 11.1922C23.3837 13.0162 24.4397 14.5762 26.3357 14.5762ZM45.6077 17.0002V8.81619C45.6077 6.56019 44.3837 5.12019 41.8397 5.12019C39.9437 5.12019 38.5277 6.03219 37.7837 6.92019V5.40819H34.7357V17.0002H37.7837V9.20019C38.2877 8.50419 39.2237 7.83219 40.4237 7.83219C41.7197 7.83219 42.5597 8.38419 42.5597 9.99219V17.0002H45.6077ZM54.0077 17.2882C50.1917 17.2882 47.8877 14.5042 47.8877 11.1922C47.8877 7.90419 50.1917 5.12019 54.0077 5.12019C57.8477 5.12019 60.1517 7.90419 60.1517 11.1922C60.1517 14.5042 57.8477 17.2882 54.0077 17.2882ZM54.0077 14.5762C55.9037 14.5762 56.9837 13.0162 56.9837 11.1922C56.9837 9.39219 55.9037 7.83219 54.0077 7.83219C52.1117 7.83219 51.0557 9.39219 51.0557 11.1922C51.0557 13.0162 52.1117 14.5762 54.0077 14.5762ZM65.4557 13.2802C65.9597 14.0242 67.0877 14.5762 68.0717 14.5762C69.8477 14.5762 71.0237 13.2322 71.0237 11.2162C71.0237 9.20019 69.8477 7.83219 68.0717 7.83219C67.0877 7.83219 65.9597 8.40819 65.4557 9.17619V13.2802ZM65.4557 17.0002H62.4077V0.992188H65.4557V6.89619C66.3677 5.72019 67.6637 5.12019 69.0317 5.12019C71.9837 5.12019 74.1677 7.42419 74.1677 11.2162C74.1677 15.0802 71.9597 17.2882 69.0317 17.2882C67.6397 17.2882 66.3677 16.6642 65.4557 15.5122V17.0002ZM86.4797 17.0002H83.4317V15.8002C82.6397 16.7362 81.2717 17.2882 79.7597 17.2882C77.9117 17.2882 75.7277 16.0402 75.7277 13.4482C75.7277 10.7362 77.9117 9.70419 79.7597 9.70419C81.2957 9.70419 82.6637 10.2082 83.4317 11.1202V9.56019C83.4317 8.38419 82.4237 7.61619 80.8877 7.61619C79.6397 7.61619 78.4877 8.07219 77.5037 8.98419L76.3517 6.94419C77.7677 5.69619 79.5917 5.12019 81.4157 5.12019C84.0557 5.12019 86.4797 6.17619 86.4797 9.51219V17.0002ZM80.9837 15.2242C81.9677 15.2242 82.9277 14.8882 83.4317 14.2162V12.7762C82.9277 12.1042 81.9677 11.7682 80.9837 11.7682C79.7837 11.7682 78.7997 12.3922 78.7997 13.5202C78.7997 14.6002 79.7837 15.2242 80.9837 15.2242ZM100.376 17.0002V8.81619C100.376 6.56019 99.1517 5.12019 96.6077 5.12019C94.7117 5.12019 93.2957 6.03219 92.5517 6.92019V5.40819H89.5037V17.0002H92.5517V9.20019C93.0557 8.50419 93.9917 7.83219 95.1917 7.83219C96.4877 7.83219 97.3277 8.38419 97.3277 9.99219V17.0002H100.376ZM114.728 17.0002L110 10.6642L114.584 5.40819H110.84L106.448 10.5682V0.992188H103.4V17.0002H106.448V14.0242L107.84 12.5362L110.912 17.0002H114.728Z" fill="black"/>
<g opacity="0.6">
<path opacity="0.6" fill-rule="evenodd" clip-rule="evenodd" d="M257.768 3.18162H260.265V11.1236H260.406L263.653 7.30863L265.956 7.30262L262.394 11.4726L266.685 16.6876H263.809L260.301 11.8336H260.265V16.6876H257.768V3.18162ZM139.066 3.78562V11.1916C139.066 13.7146 139.813 15.0936 141.906 15.0936C143.909 15.0936 144.71 13.4216 144.71 11.3376V3.78562H147.07V11.7986C147.07 15.0566 144.936 16.9026 141.832 16.9026C138.278 16.9026 136.43 15.1856 136.43 11.6696V3.78562H139.066ZM152.586 8.55663C153.431 7.67363 154.607 7.24963 155.787 7.24963C157.975 7.24963 159.133 8.42562 159.133 10.7466V16.6796H156.65V11.0256C156.65 9.73463 156.071 8.88663 154.778 8.88663C153.562 8.88663 152.607 9.67963 152.607 11.1916V16.6796H150.121V7.46863H152.586V8.55663ZM162.055 16.6796H164.542V7.46863H162.055V16.6796ZM161.811 4.70662C161.811 4.00762 162.408 3.28763 163.253 3.28763C164.113 3.28763 164.783 3.98862 164.783 4.70662C164.783 5.49762 164.207 6.25363 163.289 6.25363C162.409 6.25363 161.811 5.49762 161.811 4.70662ZM170.044 16.6796L166.064 7.42962H168.699C169.505 9.54862 170.341 11.5416 171.125 14.1016H171.163C172.008 11.5416 172.803 9.54862 173.662 7.42962H175.995L171.781 16.6796H170.044ZM183.395 10.9706C183.492 9.56662 182.986 8.61163 181.755 8.61163C180.328 8.61163 179.688 9.73462 179.715 10.9706H183.395ZM179.674 12.2966C179.618 14.0296 180.852 15.3166 182.404 15.3166C183.326 15.3166 184.294 15.0036 184.914 14.5786L185.624 15.8696C184.352 16.6056 183.022 16.9026 181.957 16.9026C179.132 16.9026 177.02 14.9296 177.02 11.8906C177.02 9.05262 179.112 7.24963 181.788 7.24963C184.706 7.24963 185.923 9.55062 185.739 12.2966H179.674ZM190.62 9.08963H190.655L191.161 8.37162C191.439 7.96462 192.001 7.24963 192.768 7.24963C193.329 7.24963 193.93 7.54462 194.454 8.07662L193.516 9.77163C193.105 9.56663 192.842 9.45862 192.34 9.45862C191.479 9.45862 190.638 10.1406 190.638 12.1286V16.6796H188.143V7.46863H190.62V9.08963ZM201.093 9.19963C200.533 8.79462 199.953 8.61163 199.501 8.61163C198.941 8.61163 198.379 8.92362 198.379 9.55062C198.379 10.2876 199.279 10.7126 200.325 11.4646C201.657 12.4456 202.046 13.4026 202.046 14.2456C202.046 15.5396 200.604 16.9026 198.55 16.9026C197.258 16.9026 196.305 16.4586 195.428 15.8516L196.213 14.5786C196.771 15.0236 197.574 15.4626 198.246 15.4626C198.962 15.4626 199.595 15.0936 199.595 14.3206C199.595 13.4546 198.621 12.9766 197.726 12.3496C196.659 11.6326 195.932 10.9316 195.932 9.79163C195.932 8.33362 197.35 7.24963 199.182 7.24963C200.215 7.24963 201.222 7.50562 201.9 8.09762L201.093 9.19963ZM208.179 11.7796C206.965 12.1666 206.348 12.8476 206.348 13.8966C206.348 14.7086 206.872 15.2616 207.475 15.2616C208.462 15.2616 209.754 14.0446 209.569 11.3376L208.179 11.7796ZM208.969 15.7966C208.294 16.3496 207.434 16.9026 206.576 16.9026C205.116 16.9026 203.896 15.7966 203.896 14.1016C203.896 12.3496 205.19 11.3746 207.361 10.7466L209.569 10.1016C209.439 9.25563 208.669 8.72262 207.869 8.72262C206.799 8.72262 206.05 9.10963 205.396 9.66263L204.589 8.50163C205.752 7.56262 206.89 7.24963 208.179 7.24963C209.904 7.24963 212.019 7.79862 212.019 10.6756V14.4316C212.019 15.1696 212.11 16.0376 212.412 16.6796H209.775C209.583 16.3656 209.53 15.8336 209.53 15.3356L208.969 15.7966ZM214.806 16.6796H217.296V3.14062H214.806V16.6796ZM239.329 11.7796C238.111 12.1666 237.494 12.8476 237.494 13.8966C237.494 14.7086 238.015 15.2616 238.617 15.2616C239.604 15.2616 240.897 14.0446 240.715 11.3376L239.329 11.7796ZM240.109 15.7966C239.439 16.3496 238.577 16.9026 237.716 16.9026C236.259 16.9026 235.04 15.7966 235.04 14.1016C235.04 12.3496 236.332 11.3746 238.505 10.7466L240.715 10.1016C240.578 9.25563 239.815 8.72262 239.005 8.72262C237.942 8.72262 237.192 9.10963 236.538 9.66263L235.733 8.50163C236.893 7.56262 238.036 7.24963 239.329 7.24963C241.046 7.24963 243.158 7.79862 243.158 10.6756V14.4316C243.158 15.1696 243.251 16.0376 243.549 16.6796H240.916C240.731 16.3656 240.669 15.8336 240.669 15.3356L240.109 15.7966ZM248.416 8.55663C249.259 7.67363 250.439 7.24963 251.616 7.24963C253.804 7.24963 254.963 8.42562 254.963 10.7466V16.6796H252.476V11.0256C252.476 9.73463 251.896 8.88663 250.605 8.88663C249.388 8.88663 248.435 9.67963 248.435 11.1916V16.6796H245.948V7.46863H248.416V8.55663ZM226.371 15.1286H227.717C229.177 15.1286 230.284 14.3746 230.284 12.9396C230.284 11.4276 229.142 10.7836 227.702 10.7836H226.371V15.1286ZM226.371 9.19963H227.198C228.715 9.19963 229.745 8.24263 229.745 7.04263C229.745 5.90263 228.88 5.40663 227.74 5.40663H226.37V9.19963H226.371ZM223.736 16.7146V3.82063H228.47C230.675 3.82063 232.23 4.81463 232.23 6.56463C232.23 8.62663 230.528 9.47663 229.612 9.71463V9.75163C231.24 9.82662 233.052 10.9296 233.052 12.9006C233.052 15.1286 231.161 16.7146 228.079 16.7146H223.736Z" fill="black"/>
</g>
<path opacity="0.4" fill-rule="evenodd" clip-rule="evenodd" d="M125 0H126V24H125V0Z" fill="black"/>
</svg>
