<svg width="80" height="80" viewBox="0 0 80 80" fill="none" xmlns="http://www.w3.org/2000/svg">
<path d="M78.8906 43.944C78.8904 43.9437 78.8904 43.9435 78.8902 43.9431L64.1635 6.96552C63.851 6.17985 62.9604 5.79629 62.1747 6.10884C62.1741 6.10903 62.1736 6.10922 62.173 6.1096L2.42857 29.8993C2.18493 30.0045 1.97363 30.1726 1.81611 30.3862C1.31925 30.6444 1.00536 31.1554 1 31.7152V71.5254C1 72.371 1.68558 73.0566 2.53116 73.0566H66.84C67.6856 73.0566 68.3711 72.371 68.3711 71.5254V49.7829L78.0358 45.9336C78.8213 45.6203 79.2039 44.7295 78.8906 43.944ZM65.3088 69.9943H4.06232V33.2464H65.3088V69.9943ZM26.5474 30.1917L52.1852 19.9758C54.4734 22.3809 57.6438 23.7478 60.9634 23.7608L63.5204 30.1917H26.5474ZM68.3711 46.494V31.7152C68.3711 30.8696 67.6856 30.1841 66.84 30.1841H66.8155L63.5709 22.0352C63.535 21.9673 63.493 21.9026 63.4454 21.8423C63.2812 21.1048 62.5983 20.6017 61.8453 20.6633C58.7566 20.9448 55.735 19.6437 53.8174 17.2059C53.3403 16.617 52.5016 16.4706 51.853 16.863C51.7802 16.8716 51.7081 16.885 51.6371 16.9028L20.337 29.3664C19.9583 29.5149 19.6553 29.8095 19.4964 30.1841H9.99098L61.8851 9.52103L75.4803 43.6583L68.3711 46.494Z" fill="#257226" stroke="#257226"/>
<path d="M8.21825 59.6573C11.191 60.536 13.5172 62.8593 14.3996 65.8309C14.5931 66.4796 15.1896 66.924 15.8664 66.9242C15.9458 66.9192 16.0247 66.9073 16.1022 66.889C16.1709 66.9085 16.2412 66.9228 16.312 66.9318H53.0599C53.123 66.9236 53.1854 66.9108 53.2467 66.8935C54.0117 67.0796 54.7826 66.6105 54.9688 65.8455C54.9694 65.8426 54.9702 65.8399 54.9708 65.837C55.8508 62.8624 58.1774 60.5358 61.1521 59.6557C61.8734 59.4353 62.3217 58.7164 62.2024 57.9715C62.2229 57.8972 62.2376 57.8214 62.2468 57.7449V45.4956C62.2378 45.4188 62.2225 45.343 62.2009 45.269C62.3209 44.5238 61.8725 43.8046 61.1505 43.5847C58.1759 42.7048 55.8498 40.3773 54.9723 37.4018C54.7506 36.6755 54.0247 36.2261 53.2758 36.3515C53.2049 36.3318 53.1328 36.3174 53.0599 36.3086H16.312C16.2348 36.3178 16.1585 36.3331 16.0838 36.3545C15.3391 36.2359 14.6206 36.6839 14.3996 37.4049C13.5189 40.379 11.1925 42.7048 8.21825 43.5847C7.49688 43.8052 7.04863 44.524 7.16787 45.269C7.14797 45.3434 7.13361 45.419 7.125 45.4956V57.7449C7.1338 57.8168 7.14816 57.888 7.16787 57.9577C7.04232 58.7074 7.49152 59.4343 8.21825 59.6573ZM10.1873 46.1172C13.2619 44.8823 15.6987 42.4455 16.9336 39.3709H52.4367C53.6721 42.4455 56.1096 44.8823 59.1845 46.1172V57.1232C56.1109 58.3594 53.6744 60.7959 52.4382 63.8695H16.9336C15.6974 60.7959 13.2609 58.3594 10.1873 57.1232V46.1172Z" fill="#257226" stroke="#257226"/>
<path d="M34.685 60.8075C39.7589 60.8075 43.872 56.6944 43.872 51.6206C43.872 46.5467 39.7589 42.4336 34.685 42.4336C29.6111 42.4336 25.498 46.5467 25.498 51.6206C25.503 56.6923 29.6132 60.8026 34.685 60.8075ZM34.685 45.4959C38.0675 45.4959 40.8097 48.238 40.8097 51.6206C40.8097 55.0031 38.0675 57.7452 34.685 57.7452C31.3025 57.7452 28.5604 55.0031 28.5604 51.6206C28.5604 48.238 31.3025 45.4959 34.685 45.4959Z" fill="#257226" stroke="#257226"/>
<path d="M17.8436 53.9167C19.112 53.9167 20.1404 52.8884 20.1404 51.62C20.1404 50.3516 19.112 49.3232 17.8436 49.3232C16.5752 49.3232 15.5469 50.3516 15.5469 51.62C15.5469 52.8886 16.5752 53.9167 17.8436 53.9167ZM17.8436 50.8544C18.2664 50.8544 18.6092 51.1972 18.6092 51.62C18.6092 52.0428 18.2664 52.3856 17.8436 52.3856C17.4208 52.3856 17.078 52.0428 17.078 51.62C17.078 51.1972 17.4208 50.8544 17.8436 50.8544Z" fill="#257226" stroke="#257226"/>
<path d="M51.5292 53.9167C52.7975 53.9167 53.8259 52.8884 53.8259 51.62C53.8259 50.3516 52.7975 49.3232 51.5292 49.3232C50.2608 49.3232 49.2324 50.3516 49.2324 51.62C49.2324 52.8886 50.2608 53.9167 51.5292 53.9167ZM51.5292 50.8544C51.952 50.8544 52.2947 51.1972 52.2947 51.62C52.2947 52.0428 51.952 52.3856 51.5292 52.3856C51.1064 52.3856 50.7636 52.0428 50.7636 51.62C50.7636 51.1972 51.1064 50.8544 51.5292 50.8544Z" fill="#257226" stroke="#257226"/>
</svg>
