<svg width="80" height="80" viewBox="0 0 80 80" fill="none" xmlns="http://www.w3.org/2000/svg">
<path d="M59.6805 55.1244L57.9476 53.3876L56.1094 55.2258L58.7614 57.8778C59.269 58.3853 60.0919 58.3853 60.5996 57.8778L66.7876 51.6976L64.9494 49.8594L59.6805 55.1244Z" fill="#257226" stroke="#257226"/>
<path d="M68.5988 68.5967H54.2988V71.1967H68.5988V68.5967Z" fill="#257226" stroke="#257226"/>
<path d="M77.7 29.597H58.2V17.897C58.2 17.8788 58.1909 17.8645 58.1896 17.8463C58.1841 17.7896 58.1755 17.7331 58.1636 17.6773C58.1529 17.6091 58.1368 17.5416 58.1155 17.4758C58.1017 17.4315 58.0851 17.3881 58.0661 17.3458C58.0583 17.3302 58.0661 17.312 58.0518 17.2964C58.0375 17.2808 58.0037 17.2444 57.9842 17.2145C57.9229 17.1157 57.8495 17.0249 57.7658 16.9441C57.7211 16.9061 57.6737 16.8713 57.6241 16.8401C57.5942 16.8193 57.5773 16.7894 57.5448 16.7712L30.2448 1.17123C29.8452 0.942922 29.3548 0.942922 28.9552 1.17123L1.6552 16.7712L1.6448 16.779L1.6266 16.7881C1.5031 16.8653 1.39406 16.9633 1.3042 17.078C1.2808 17.1066 1.2613 17.1339 1.2405 17.1625C1.15763 17.2784 1.09441 17.4071 1.0533 17.5434L1.0455 17.5616C1.01544 17.671 1.00016 17.7838 1 17.897V46.497C0.999838 46.9476 1.23286 47.3662 1.6162 47.6033L28.9162 64.5033H28.9253L28.9357 64.5111C29.0046 64.5482 29.0769 64.5786 29.1515 64.6021C29.1866 64.6151 29.2178 64.6359 29.2529 64.645C29.4706 64.7065 29.7007 64.7091 29.9198 64.6528C29.9692 64.6398 30.0134 64.6151 30.0602 64.5982C30.1156 64.5802 30.1699 64.5591 30.2227 64.5345H30.2292L43.9 57.0777V77.697C43.9 78.415 44.4821 78.997 45.2 78.997H77.7C78.4179 78.997 79 78.415 79 77.697V30.897C79 30.1789 78.4179 29.597 77.7 29.597ZM68.6 32.197V36.097H54.3V32.197H68.6ZM28.3 61.0661L3.6 45.7729V36.8562L10.1 39.9515V45.197C10.1002 45.6533 10.3394 46.0762 10.7305 46.3111L17.2305 50.2111C17.8459 50.5808 18.6446 50.3818 19.0144 49.7664C19.1358 49.5642 19.2 49.333 19.2 49.0972V44.2872L28.3 48.6214V61.0661ZM16.6 43.0468V46.7999L12.7 44.4599V41.1891L16.6 43.0468ZM12.7 38.307V34.4941L16.6 36.8341V40.1686L12.7 38.307ZM28.3 45.7391L19.2 41.4049V36.097C19.1998 35.6407 18.9606 35.2179 18.5695 34.9829V34.9803L12.0695 31.0803C11.4541 30.7106 10.6554 30.9097 10.2856 31.5251C10.1637 31.7279 10.0995 31.9603 10.1 32.197V37.0707L3.6 33.9754V20.0446L28.3 32.9835V45.7391ZM29.6 30.7293L5.0066 17.8476L29.6 3.79333L54.1934 17.8476L29.6 30.7293ZM43.9 54.3165C43.6839 54.3087 43.4695 54.3567 43.2773 54.4556L30.9 61.2065V48.5965L43.9 42.0965V54.3165ZM43.9 30.897V39.1936L30.9 45.6936V32.9835L55.6 20.0459V29.597H53H45.2C44.4821 29.597 43.9 30.1789 43.9 30.897ZM76.4 76.397H46.5V32.197H51.7V37.397C51.7 38.115 52.2821 38.697 53 38.697H69.9C70.6179 38.697 71.2 38.115 71.2 37.397V32.197H76.4V76.397Z" fill="#257226" stroke="#257226"/>
<path d="M61.4496 41.2969C54.6288 41.2969 49.0996 46.8261 49.0996 53.6469C49.0996 60.4677 54.6288 65.9969 61.4496 65.9969C68.2704 65.9969 73.7996 60.4677 73.7996 53.6469C73.7918 46.8294 68.2671 41.3047 61.4496 41.2969ZM61.4496 63.3969C56.0648 63.3969 51.6996 59.0316 51.6996 53.6469C51.6996 48.2621 56.0648 43.8969 61.4496 43.8969C66.8344 43.8969 71.1996 48.2621 71.1996 53.6469C71.1939 59.0292 66.8319 63.391 61.4496 63.3969Z" fill="#257226" stroke="#257226"/>
</svg>
