<svg width="80" height="80" viewBox="0 0 80 80" fill="none" xmlns="http://www.w3.org/2000/svg">
<path d="M78.4558 29.0078L69.7415 6.329C68.0902 2.04179 63.2793 -0.093688 58.9962 1.55919C58.934 1.58324 58.872 1.60794 58.8103 1.63345L15.2623 19.7026C11.1157 21.4052 9.07775 26.1034 10.6662 30.2985L11.8636 33.4976H9.11688C4.6362 33.5026 1.00503 37.1373 1 41.6222V70.8709C1.00503 75.3559 4.6362 78.9905 9.11688 78.9956H64.3116C68.7923 78.9905 72.4235 75.3559 72.4285 70.8709V41.6222C72.4259 41.1812 72.3868 40.7412 72.3116 40.3067L73.8194 39.6957C78.003 37.9793 80.0592 33.2394 78.4558 29.0078ZM9.11688 36.0977H64.3116C67.2266 36.1059 69.6311 38.3846 69.7986 41.2974H3.62987C3.7974 38.3844 6.20194 36.1058 9.11688 36.0977ZM22.1701 28.2668L30.8506 23.9211L32.635 28.389L23.9545 32.7334L22.1701 28.2668ZM69.8311 70.8711C69.8275 73.9209 67.3586 76.3923 64.3116 76.3958H9.11688C6.06996 76.3923 3.60097 73.9209 3.5974 70.8711V54.2968H69.8311V70.8711ZM69.8311 51.6969H3.5974V43.8973H69.8311V51.6969ZM72.8454 37.2936L71.4883 37.8435C70.0865 35.1747 67.324 33.502 64.3116 33.4978H28.2363L34.8662 30.179C35.4708 29.8769 35.743 29.1613 35.4922 28.5333L32.7376 21.6436C32.4712 20.9771 31.7156 20.6527 31.0497 20.9192C31.0161 20.9327 30.9831 20.9475 30.9508 20.9637L19.9391 26.4781C19.3351 26.7806 19.0635 27.4961 19.3144 28.1238L21.4625 33.4978H14.6364L13.0987 29.3926C12.0086 26.5103 13.4088 23.2832 16.2571 22.1129L59.8039 4.0437C62.715 2.8354 66.0537 4.21805 67.261 7.13204C67.2798 7.17737 67.298 7.22303 67.3155 7.26885L76.0298 29.9476C77.1322 32.8554 75.7201 36.1131 72.8454 37.2936Z" fill="#257226" stroke="#257226"/>
<path d="M47.7171 72.7405C50.1372 74.1479 53.1257 74.1479 55.5458 72.7405C59.2669 74.9044 64.036 73.6391 66.1979 69.9144C68.3597 66.1898 67.0956 61.4161 63.3745 59.2522C62.1802 58.5577 60.8231 58.1934 59.4419 58.1966C58.0727 58.1973 56.7283 58.5614 55.5458 59.2522C51.8247 57.0882 47.0555 58.3534 44.8937 62.0781C42.7318 65.8029 43.996 70.5764 47.7171 72.7405ZM57.7172 61.1138C58.2696 60.9101 58.8531 60.8028 59.4419 60.7967C62.3109 60.7967 64.6367 63.1247 64.6367 65.9964C64.6367 68.8682 62.3109 71.1962 59.4419 71.1962C58.8531 71.19 58.2696 71.0828 57.7172 70.879C60.0166 68.0307 60.0166 63.962 57.7172 61.1138ZM55.5458 62.5932C57.2774 64.5311 57.2774 67.4618 55.5458 69.3997C53.8141 67.4618 53.8141 64.5309 55.5458 62.5932ZM51.6497 60.7967C52.2385 60.8027 52.8219 60.9101 53.3744 61.1138C51.075 63.962 51.075 68.0308 53.3744 70.879C52.8219 71.0828 52.2385 71.19 51.6497 71.1962C48.7807 71.1962 46.4549 68.8682 46.4549 65.9964C46.4549 63.1245 48.7807 60.7967 51.6497 60.7967Z" fill="#257226" stroke="#257226"/>
<path d="M55.7828 27.8274L56.8379 30.2031L69.2276 24.6904L68.1725 22.3146L55.7828 27.8274Z" fill="#257226" stroke="#257226"/>
<path d="M65.4056 16.8111L47.5098 25.0791L48.5978 27.4386L66.4936 19.1707L65.4056 16.8111Z" fill="#257226" stroke="#257226"/>
</svg>
